<?xml version="1.0" encoding="utf-8"?>
<!-- Generator: Adobe Illustrator 23.0.3, SVG Export Plug-In . SVG Version: 6.00 Build 0)  -->
<svg version="1.1" id="Layer_1" xmlns="http://www.w3.org/2000/svg" xmlns:xlink="http://www.w3.org/1999/xlink" x="0px" y="0px"
	 viewBox="0 0 96 68.46" style="enable-background:new 0 0 96 68.46;" xml:space="preserve">
<style type="text/css">
	.st0{fill-rule:evenodd;clip-rule:evenodd;fill:#CCCCCC;}
	.st1{fill:#CCCCCB;}
	.st2{fill:#FFFFFF;}
</style>
<g>
	<path class="st0" d="M48.03,10.76c16.54,0,31.29,9.09,38.49,23.47c-7.2,14.38-21.91,23.47-38.49,23.47
		c-16.58,0-31.29-9.09-38.49-23.47C16.74,19.85,31.49,10.76,48.03,10.76z M48.03,2.23c-21.82,0-40.45,13.27-48,32
		c7.55,18.73,26.18,32,48,32c21.82,0,40.45-13.27,48-32C88.48,15.5,69.85,2.23,48.03,2.23z M48.03,23.56
		c6.02,0,10.91,4.78,10.91,10.67s-4.89,10.67-10.91,10.67c-6.02,0-10.91-4.78-10.91-10.67S42.01,23.56,48.03,23.56z M48.03,15.03
		c-10.82,0-19.64,8.62-19.64,19.2c0,10.58,8.81,19.2,19.64,19.2c10.82,0,19.64-8.62,19.64-19.2C67.67,23.65,58.85,15.03,48.03,15.03
		z"/>
	<g>
		<g>
			
				<rect x="42.76" y="-10.91" transform="matrix(0.7071 -0.7071 0.7071 0.7071 -10.1355 43.9861)" class="st1" width="10.53" height="90.28"/>
			<path class="st2" d="M19.84,0l62.42,62.42l-6.03,6.03L13.8,6.03L19.84,0 M19.84-2.83l-1.41,1.41l-6.03,6.03l-1.41,1.41l1.41,1.41
				l62.42,62.42l1.41,1.41l1.41-1.41l6.03-6.03l1.41-1.41l-1.41-1.41L21.25-1.41L19.84-2.83L19.84-2.83z"/>
		</g>
	</g>
</g>
</svg>
